<svg width="33" height="32" viewBox="0 0 33 32" fill="none" xmlns="http://www.w3.org/2000/svg">
<path d="M12.793 19.5C13.6214 19.5 14.293 18.8284 14.293 18C14.293 17.1716 13.6214 16.5 12.793 16.5C11.9645 16.5 11.293 17.1716 11.293 18C11.293 18.8284 11.9645 19.5 12.793 19.5Z" fill="#858584"/>
<path d="M20.793 19.5C21.6214 19.5 22.293 18.8284 22.293 18C22.293 17.1716 21.6214 16.5 20.793 16.5C19.9645 16.5 19.293 17.1716 19.293 18C19.293 18.8284 19.9645 19.5 20.793 19.5Z" fill="#858584"/>
<path fill-rule="evenodd" clip-rule="evenodd" d="M16.7847 10.0006C14.6169 9.98454 12.4598 10.3065 10.3911 10.9548C9.86412 11.12 9.303 10.8267 9.13783 10.2997C8.97266 9.77266 9.26599 9.21154 9.793 9.04637C12.0576 8.33661 14.4189 7.98379 16.7921 8.00057C19.1652 7.98379 21.5265 8.33661 23.7911 9.04637C24.3181 9.21154 24.6115 9.77266 24.4463 10.2997C24.2811 10.8267 23.72 11.12 23.193 10.9548C21.1243 10.3065 18.9673 9.98454 16.7995 10.0006H16.7847Z" fill="#858584"/>
<path fill-rule="evenodd" clip-rule="evenodd" d="M9.13783 21.7012C9.303 21.1742 9.86412 20.8809 10.3911 21.046C12.4598 21.6944 14.6169 22.0163 16.7847 22.0003H16.7995C18.9673 22.0163 21.1243 21.6944 23.193 21.046C23.72 20.8809 24.2811 21.1742 24.4463 21.7012C24.6115 22.2282 24.3181 22.7893 23.7911 22.9545C21.5265 23.6643 19.1652 24.0171 16.7921 24.0003C14.4189 24.0171 12.0576 23.6643 9.793 22.9545C9.26599 22.7893 8.97266 22.2282 9.13783 21.7012Z" fill="#858584"/>
<path fill-rule="evenodd" clip-rule="evenodd" d="M21.0124 4.81024C21.4429 4.56754 21.9476 4.4917 22.4303 4.59714C23.7479 4.88268 25.0378 5.28326 26.2853 5.79426C26.5661 5.90254 26.8183 6.07398 27.0224 6.29541C27.2286 6.5192 27.38 6.78788 27.4645 7.08017L31.7003 21.2246C31.8108 21.593 31.8134 21.9855 31.7077 22.3554C31.602 22.7253 31.3925 23.0571 31.104 23.3116L31.0989 23.3161C29.0314 25.1151 26.23 26.4767 23.0481 27.2567C22.6061 27.3694 22.1387 27.3256 21.7252 27.1326C21.3134 26.9404 20.9806 26.6122 20.7828 26.2035L19.2745 23.2119C19.0259 22.7188 19.2241 22.1174 19.7173 21.8688C20.2104 21.6202 20.8118 21.8184 21.0604 22.3115L22.5729 25.3115L22.574 25.3137C25.5119 24.5933 28.006 23.3562 29.786 21.8073L30.4425 22.5617L29.7809 21.8119C29.7827 21.8103 29.784 21.8082 29.7846 21.8059C29.7853 21.8036 29.7853 21.8012 29.7846 21.7989L25.5485 7.65368C25.545 7.65227 25.5414 7.65084 25.5379 7.64939C24.395 7.18051 23.213 6.81314 22.0057 6.55155L22.0035 6.55107C22.0005 6.55042 21.9974 6.55089 21.9947 6.5524C21.9923 6.55375 21.9904 6.55587 21.9893 6.5584L21.0044 9.53807C20.8311 10.0625 20.2655 10.347 19.7411 10.1737C19.2167 10.0004 18.9322 9.43476 19.1055 8.91038L20.0959 5.91419C20.2554 5.44609 20.5817 5.05312 21.0124 4.81024Z" fill="#858584"/>
<path fill-rule="evenodd" clip-rule="evenodd" d="M11.5912 6.5524C11.5885 6.55089 11.5854 6.55042 11.5824 6.55107L11.5802 6.55155C10.3729 6.81314 9.19089 7.18051 8.04798 7.64939C8.04446 7.65084 8.04092 7.65227 8.03737 7.65368L3.80139 21.7986C3.80071 21.8009 3.80061 21.8036 3.80126 21.8059C3.80185 21.808 3.80297 21.8099 3.80449 21.8114C5.58418 23.3583 8.07657 24.5939 11.0119 25.3137L11.013 25.3115L12.5255 22.3115C12.7741 21.8184 13.3755 21.6202 13.8686 21.8688C14.3618 22.1174 14.56 22.7188 14.3114 23.2119L12.8031 26.2035C12.6052 26.6122 12.2724 26.9404 11.8607 27.1326C11.4472 27.3256 10.9798 27.3694 10.5378 27.2567C7.35584 26.4767 4.55447 25.1151 2.48701 23.3161L2.48183 23.3116C2.19336 23.0571 1.9839 22.7252 1.87821 22.3554C1.77256 21.9856 1.77508 21.5932 1.88546 21.2248C1.88549 21.2247 1.88543 21.2249 1.88546 21.2248L6.12136 7.08019C6.20588 6.78789 6.35723 6.51921 6.56348 6.29541C6.76754 6.07398 7.01976 5.90254 7.30056 5.79426C8.54843 5.28312 9.83874 4.88246 11.1567 4.5969C11.6391 4.49181 12.1433 4.56772 12.5735 4.81024C13.0042 5.05312 13.3305 5.4461 13.49 5.9142L13.4929 5.92287L14.4804 8.91038C14.6537 9.43476 14.3692 10.0004 13.8448 10.1737C13.3204 10.347 12.7548 10.0624 12.5815 9.53807L11.5965 6.55839C11.5955 6.55586 11.5936 6.55375 11.5912 6.5524Z" fill="#858584"/>
<path d="M12.793 19.5C13.6214 19.5 14.293 18.8284 14.293 18C14.293 17.1716 13.6214 16.5 12.793 16.5C11.9645 16.5 11.293 17.1716 11.293 18C11.293 18.8284 11.9645 19.5 12.793 19.5Z" fill="#858584"/>
<path d="M20.793 19.5C21.6214 19.5 22.293 18.8284 22.293 18C22.293 17.1716 21.6214 16.5 20.793 16.5C19.9645 16.5 19.293 17.1716 19.293 18C19.293 18.8284 19.9645 19.5 20.793 19.5Z" fill="#858584"/>
<path fill-rule="evenodd" clip-rule="evenodd" d="M16.7847 10.0006C14.6169 9.98454 12.4598 10.3065 10.3911 10.9548C9.86412 11.12 9.303 10.8267 9.13783 10.2997C8.97266 9.77266 9.26599 9.21154 9.793 9.04637C12.0576 8.33661 14.4189 7.98379 16.7921 8.00057C19.1652 7.98379 21.5265 8.33661 23.7911 9.04637C24.3181 9.21154 24.6115 9.77266 24.4463 10.2997C24.2811 10.8267 23.72 11.12 23.193 10.9548C21.1243 10.3065 18.9673 9.98454 16.7995 10.0006H16.7847Z" fill="#858584"/>
<path fill-rule="evenodd" clip-rule="evenodd" d="M9.13783 21.7012C9.303 21.1742 9.86412 20.8809 10.3911 21.046C12.4598 21.6944 14.6169 22.0163 16.7847 22.0003H16.7995C18.9673 22.0163 21.1243 21.6944 23.193 21.046C23.72 20.8809 24.2811 21.1742 24.4463 21.7012C24.6115 22.2282 24.3181 22.7893 23.7911 22.9545C21.5265 23.6643 19.1652 24.0171 16.7921 24.0003C14.4189 24.0171 12.0576 23.6643 9.793 22.9545C9.26599 22.7893 8.97266 22.2282 9.13783 21.7012Z" fill="#858584"/>
<path fill-rule="evenodd" clip-rule="evenodd" d="M21.0124 4.81024C21.4429 4.56754 21.9476 4.4917 22.4303 4.59714C23.7479 4.88268 25.0378 5.28326 26.2853 5.79426C26.5661 5.90254 26.8183 6.07398 27.0224 6.29541C27.2286 6.5192 27.38 6.78788 27.4645 7.08017L31.7003 21.2246C31.8108 21.593 31.8134 21.9855 31.7077 22.3554C31.602 22.7253 31.3925 23.0571 31.104 23.3116L31.0989 23.3161C29.0314 25.1151 26.23 26.4767 23.0481 27.2567C22.6061 27.3694 22.1387 27.3256 21.7252 27.1326C21.3134 26.9404 20.9806 26.6122 20.7828 26.2035L19.2745 23.2119C19.0259 22.7188 19.2241 22.1174 19.7173 21.8688C20.2104 21.6202 20.8118 21.8184 21.0604 22.3115L22.5729 25.3115L22.574 25.3137C25.5119 24.5933 28.006 23.3562 29.786 21.8073L30.4425 22.5617L29.7809 21.8119C29.7827 21.8103 29.784 21.8082 29.7846 21.8059C29.7853 21.8036 29.7853 21.8012 29.7846 21.7989L25.5485 7.65368C25.545 7.65227 25.5414 7.65084 25.5379 7.64939C24.395 7.18051 23.213 6.81314 22.0057 6.55155L22.0035 6.55107C22.0005 6.55042 21.9974 6.55089 21.9947 6.5524C21.9923 6.55375 21.9904 6.55587 21.9893 6.5584L21.0044 9.53807C20.8311 10.0625 20.2655 10.347 19.7411 10.1737C19.2167 10.0004 18.9322 9.43476 19.1055 8.91038L20.0959 5.91419C20.2554 5.44609 20.5817 5.05312 21.0124 4.81024Z" fill="#858584"/>
<path fill-rule="evenodd" clip-rule="evenodd" d="M11.5912 6.5524C11.5885 6.55089 11.5854 6.55042 11.5824 6.55107L11.5802 6.55155C10.3729 6.81314 9.19089 7.18051 8.04798 7.64939C8.04446 7.65084 8.04092 7.65227 8.03737 7.65368L3.80139 21.7986C3.80071 21.8009 3.80061 21.8036 3.80126 21.8059C3.80185 21.808 3.80297 21.8099 3.80449 21.8114C5.58418 23.3583 8.07657 24.5939 11.0119 25.3137L11.013 25.3115L12.5255 22.3115C12.7741 21.8184 13.3755 21.6202 13.8686 21.8688C14.3618 22.1174 14.56 22.7188 14.3114 23.2119L12.8031 26.2035C12.6052 26.6122 12.2724 26.9404 11.8607 27.1326C11.4472 27.3256 10.9798 27.3694 10.5378 27.2567C7.35584 26.4767 4.55447 25.1151 2.48701 23.3161L2.48183 23.3116C2.19336 23.0571 1.9839 22.7252 1.87821 22.3554C1.77256 21.9856 1.77508 21.5932 1.88546 21.2248C1.88549 21.2247 1.88543 21.2249 1.88546 21.2248L6.12136 7.08019C6.20588 6.78789 6.35723 6.51921 6.56348 6.29541C6.76754 6.07398 7.01976 5.90254 7.30056 5.79426C8.54843 5.28312 9.83874 4.88246 11.1567 4.5969C11.6391 4.49181 12.1433 4.56772 12.5735 4.81024C13.0042 5.05312 13.3305 5.4461 13.49 5.9142L13.4929 5.92287L14.4804 8.91038C14.6537 9.43476 14.3692 10.0004 13.8448 10.1737C13.3204 10.347 12.7548 10.0624 12.5815 9.53807L11.5965 6.55839C11.5955 6.55586 11.5936 6.55375 11.5912 6.5524Z" fill="#858584"/>
</svg>
