<svg width="21" height="20" viewBox="0 0 21 20" fill="none" xmlns="http://www.w3.org/2000/svg">
<path fill-rule="evenodd" clip-rule="evenodd" d="M10.5 10C9.98223 10 9.5625 10.4197 9.5625 10.9375C9.5625 11.4553 9.98223 11.875 10.5 11.875C11.0178 11.875 11.4375 11.4553 11.4375 10.9375C11.4375 10.4197 11.0178 10 10.5 10ZM8.3125 10.9375C8.3125 9.72938 9.29188 8.75 10.5 8.75C11.7081 8.75 12.6875 9.72938 12.6875 10.9375C12.6875 12.1456 11.7081 13.125 10.5 13.125C9.29188 13.125 8.3125 12.1456 8.3125 10.9375Z" fill="#BDBDBD"/>
<path fill-rule="evenodd" clip-rule="evenodd" d="M10.5 11.875C10.8452 11.875 11.125 12.1548 11.125 12.5V14.375C11.125 14.7202 10.8452 15 10.5 15C10.1548 15 9.875 14.7202 9.875 14.375V12.5C9.875 12.1548 10.1548 11.875 10.5 11.875Z" fill="#BDBDBD"/>
<path fill-rule="evenodd" clip-rule="evenodd" d="M3 7.5C3 6.80964 3.55964 6.25 4.25 6.25H16.75C17.4404 6.25 18 6.80964 18 7.5V16.25C18 16.9404 17.4404 17.5 16.75 17.5H4.25C3.55964 17.5 3 16.9404 3 16.25V7.5ZM16.75 7.5H4.25V16.25H16.75V7.5Z" fill="#BDBDBD"/>
<path fill-rule="evenodd" clip-rule="evenodd" d="M10.5 1.875C9.91984 1.875 9.36344 2.10547 8.9532 2.5157C8.54297 2.92594 8.3125 3.48234 8.3125 4.0625V6.875C8.3125 7.22018 8.03268 7.5 7.6875 7.5C7.34232 7.5 7.0625 7.22018 7.0625 6.875V4.0625C7.0625 3.15082 7.42466 2.27648 8.06932 1.63182C8.71398 0.987164 9.58832 0.625 10.5 0.625C11.4117 0.625 12.286 0.987164 12.9307 1.63182C13.5753 2.27648 13.9375 3.15082 13.9375 4.0625V6.875C13.9375 7.22018 13.6577 7.5 13.3125 7.5C12.9673 7.5 12.6875 7.22018 12.6875 6.875V4.0625C12.6875 3.48234 12.457 2.92594 12.0468 2.5157C11.6366 2.10547 11.0802 1.875 10.5 1.875Z" fill="#BDBDBD"/>
</svg>
