<svg width="77" height="26" viewBox="0 0 77 26" fill="none" xmlns="http://www.w3.org/2000/svg">
<g clip-path="url(#clip0_3220_11249)">
<path d="M13.8789 16.25C15.6738 16.25 17.1289 14.7949 17.1289 13C17.1289 11.2051 15.6738 9.75 13.8789 9.75C12.084 9.75 10.6289 11.2051 10.6289 13C10.6289 14.7949 12.084 16.25 13.8789 16.25Z" stroke="white" stroke-width="3" stroke-linecap="round" stroke-linejoin="round"/>
<path d="M21.8962 16.2506C21.752 16.5774 21.709 16.9399 21.7727 17.2913C21.8364 17.6427 22.004 17.967 22.2537 18.2223L22.3187 18.2873C22.5202 18.4885 22.68 18.7275 22.789 18.9905C22.8981 19.2536 22.9542 19.5355 22.9542 19.8202C22.9542 20.105 22.8981 20.3869 22.789 20.6499C22.68 20.913 22.5202 21.1519 22.3187 21.3531C22.1175 21.5546 21.8785 21.7144 21.6155 21.8234C21.3525 21.9325 21.0705 21.9886 20.7858 21.9886C20.5011 21.9886 20.2191 21.9325 19.9561 21.8234C19.6931 21.7144 19.4541 21.5546 19.2529 21.3531L19.1879 21.2881C18.9326 21.0384 18.6083 20.8709 18.2569 20.8071C17.9054 20.7434 17.543 20.7864 17.2162 20.9306C16.8958 21.068 16.6225 21.296 16.4301 21.5866C16.2376 21.8773 16.1343 22.2179 16.1329 22.5665V22.7506C16.1329 23.3253 15.9046 23.8764 15.4983 24.2827C15.092 24.689 14.5409 24.9173 13.9662 24.9173C13.3916 24.9173 12.8405 24.689 12.4342 24.2827C12.0278 23.8764 11.7996 23.3253 11.7996 22.7506V22.6531C11.7912 22.2946 11.6751 21.9468 11.4664 21.6551C11.2578 21.3633 10.9662 21.1411 10.6296 21.0173C10.3028 20.8731 9.94035 20.8301 9.58892 20.8938C9.23749 20.9575 8.91321 21.1251 8.65789 21.3748L8.59289 21.4398C8.39167 21.6413 8.15271 21.8011 7.88968 21.9101C7.62665 22.0191 7.34471 22.0753 7.05997 22.0753C6.77524 22.0753 6.4933 22.0191 6.23027 21.9101C5.96724 21.8011 5.72828 21.6413 5.52706 21.4398C5.32561 21.2386 5.1658 20.9996 5.05676 20.7366C4.94772 20.4736 4.8916 20.1916 4.8916 19.9069C4.8916 19.6222 4.94772 19.3402 5.05676 19.0772C5.1658 18.8142 5.32561 18.5752 5.52706 18.374L5.59206 18.309C5.84181 18.0537 6.00934 17.7294 6.07306 17.378C6.13678 17.0265 6.09376 16.6641 5.94956 16.3373C5.81223 16.0169 5.58421 15.7436 5.29356 15.5511C5.00291 15.3587 4.66233 15.2554 4.31372 15.254H4.12956C3.55492 15.254 3.00382 15.0257 2.59749 14.6194C2.19116 14.2131 1.96289 13.662 1.96289 13.0873C1.96289 12.5127 2.19116 11.9616 2.59749 11.5553C3.00382 11.1489 3.55492 10.9207 4.12956 10.9207H4.22706C4.58563 10.9123 4.9334 10.7962 5.22513 10.5875C5.51687 10.3789 5.73908 10.0873 5.86289 9.75065C6.0071 9.4239 6.05012 9.06144 5.9864 8.71001C5.92267 8.35858 5.75514 8.0343 5.50539 7.77898L5.44039 7.71398C5.23894 7.51276 5.07913 7.2738 4.97009 7.01077C4.86106 6.74774 4.80494 6.4658 4.80494 6.18107C4.80494 5.89633 4.86106 5.61439 4.97009 5.35136C5.07913 5.08833 5.23894 4.84938 5.44039 4.64815C5.64162 4.4467 5.88057 4.28689 6.1436 4.17785C6.40663 4.06882 6.68857 4.0127 6.97331 4.0127C7.25804 4.0127 7.53998 4.06882 7.80301 4.17785C8.06604 4.28689 8.305 4.4467 8.50622 4.64815L8.57122 4.71315C8.82654 4.9629 9.15082 5.13044 9.50225 5.19416C9.85368 5.25788 10.2161 5.21486 10.5429 5.07065H10.6296C10.95 4.93332 11.2232 4.7053 11.4157 4.41465C11.6082 4.12401 11.7115 3.78342 11.7129 3.43482V3.25065C11.7129 2.67602 11.9412 2.12492 12.3475 1.71859C12.7538 1.31226 13.3049 1.08398 13.8796 1.08398C14.4542 1.08398 15.0053 1.31226 15.4116 1.71859C15.8179 2.12492 16.0462 2.67602 16.0462 3.25065V3.34815C16.0476 3.69675 16.1509 4.03734 16.3434 4.32799C16.5359 4.61864 16.8091 4.84666 17.1296 4.98398C17.4563 5.12819 17.8188 5.17121 18.1702 5.10749C18.5216 5.04377 18.8459 4.87623 19.1012 4.62648L19.1662 4.56148C19.3674 4.36004 19.6064 4.20022 19.8694 4.09119C20.1325 3.98215 20.4144 3.92603 20.6991 3.92603C20.9839 3.92603 21.2658 3.98215 21.5288 4.09119C21.7919 4.20022 22.0308 4.36004 22.2321 4.56148C22.4335 4.76271 22.5933 5.00167 22.7024 5.2647C22.8114 5.52773 22.8675 5.80967 22.8675 6.0944C22.8675 6.37913 22.8114 6.66108 22.7024 6.9241C22.5933 7.18713 22.4335 7.42609 22.2321 7.62732L22.1671 7.69232C21.9173 7.94764 21.7498 8.27192 21.6861 8.62335C21.6223 8.97477 21.6653 9.33723 21.8096 9.66398V9.75065C21.9469 10.0711 22.1749 10.3443 22.4656 10.5368C22.7562 10.7293 23.0968 10.8326 23.4454 10.834H23.6296C24.2042 10.834 24.7553 11.0623 25.1616 11.4686C25.5679 11.8749 25.7962 12.426 25.7962 13.0007C25.7962 13.5753 25.5679 14.1264 25.1616 14.5327C24.7553 14.939 24.2042 15.1673 23.6296 15.1673H23.5321C23.1835 15.1687 22.8429 15.272 22.5522 15.4645C22.2616 15.657 22.0335 15.9302 21.8962 16.2506V16.2506Z" stroke="white" stroke-width="3" stroke-linecap="round" stroke-linejoin="round"/>
</g>
<path d="M59.5456 3.25H56.2956C55.7209 3.25 55.1698 3.47827 54.7635 3.8846C54.3572 4.29093 54.1289 4.84203 54.1289 5.41667V8.66667M73.6289 8.66667V5.41667C73.6289 4.84203 73.4006 4.29093 72.9943 3.8846C72.588 3.47827 72.0369 3.25 71.4622 3.25H68.2122M68.2122 22.75H71.4622C72.0369 22.75 72.588 22.5217 72.9943 22.1154C73.4006 21.7091 73.6289 21.158 73.6289 20.5833V17.3333M54.1289 17.3333V20.5833C54.1289 21.158 54.3572 21.7091 54.7635 22.1154C55.1698 22.5217 55.7209 22.75 56.2956 22.75H59.5456" stroke="white" stroke-width="3" stroke-linecap="round" stroke-linejoin="round"/>
<defs>
<clipPath id="clip0_3220_11249">
<rect width="26" height="26" fill="white" transform="translate(0.878906)"/>
</clipPath>
</defs>
</svg>
