<svg width="33" height="32" viewBox="0 0 33 32" fill="none" xmlns="http://www.w3.org/2000/svg">
<path d="M16.7936 11.0005C16.7936 8.25045 19.1061 5.96295 21.8561 6.00045C22.8192 6.01157 23.7586 6.3006 24.5613 6.8328C25.364 7.365 25.996 8.11771 26.3811 9.00045H30.7936L26.7561 13.038C26.4956 17.0937 24.7002 20.8979 21.7351 23.6773C18.77 26.4566 14.8577 28.0025 10.7936 28.0005C6.79364 28.0005 5.79364 26.5005 5.79364 26.5005C5.79364 26.5005 9.79364 25.0005 11.7936 22.0005C11.7936 22.0005 3.79364 18.0005 5.79364 7.00045C5.79364 7.00045 10.7936 12.0005 16.7936 13.0005V11.0005Z" stroke="#858584" stroke-width="2" stroke-linecap="round" stroke-linejoin="round"/>
</svg>
