<svg width="33" height="32" viewBox="0 0 33 32" fill="none" xmlns="http://www.w3.org/2000/svg">
<path fill-rule="evenodd" clip-rule="evenodd" d="M5.33586 10.7929C7.71969 8.40907 11.4604 6 16.793 6C22.1255 6 25.8663 8.40907 28.2501 10.7929C29.4391 11.9819 30.2965 13.1692 30.858 14.0609C31.1392 14.5076 31.3476 14.8823 31.4874 15.1493C31.5573 15.2828 31.6102 15.3896 31.6466 15.4651C31.6648 15.5029 31.6789 15.5329 31.6889 15.5545L31.7008 15.5806L31.7046 15.5889L31.7059 15.5918L31.7064 15.5929C31.7066 15.5934 31.7068 15.5939 30.793 16C31.7068 16.4061 31.7066 16.4066 31.7064 16.4071L31.7059 16.4082L31.7046 16.4111L31.7008 16.4194L31.6889 16.4455C31.6789 16.4671 31.6648 16.4971 31.6466 16.5349C31.6102 16.6104 31.5573 16.7172 31.4874 16.8507C31.3476 17.1177 31.1392 17.4924 30.858 17.9391C30.2965 18.8308 29.4391 20.0181 28.2501 21.2071C25.8663 23.5909 22.1255 26 16.793 26C11.4604 26 7.71969 23.5909 5.33586 21.2071C4.14684 20.0181 3.28944 18.8308 2.72799 17.9391C2.44677 17.4924 2.23837 17.1177 2.09854 16.8507C2.0286 16.7172 1.9757 16.6104 1.93933 16.5349C1.92114 16.4971 1.90708 16.4671 1.89707 16.4455L1.8851 16.4194L1.88138 16.4111L1.88008 16.4082L1.87957 16.4071C1.87936 16.4066 1.87916 16.4061 2.79297 16C1.87916 15.5939 1.87936 15.5934 1.87957 15.5929L1.88008 15.5918L1.88138 15.5889L1.8851 15.5806L1.89707 15.5545C1.90708 15.5329 1.92114 15.5029 1.93933 15.4651C1.9757 15.3896 2.0286 15.2828 2.09854 15.1493C2.23837 14.8823 2.44677 14.5076 2.72799 14.0609C3.28944 13.1692 4.14684 11.9819 5.33586 10.7929ZM2.79297 16L1.87916 15.5939C1.76424 15.8524 1.76424 16.1476 1.87916 16.4061L2.79297 16ZM3.91108 16C4.02873 16.2204 4.19767 16.5196 4.42045 16.8734C4.9215 17.6692 5.6891 18.7319 6.75008 19.7929C8.86625 21.9091 12.1255 24 16.793 24C21.4604 24 24.7197 21.9091 26.8359 19.7929C27.8968 18.7319 28.6644 17.6692 29.1655 16.8734C29.3883 16.5196 29.5572 16.2204 29.6749 16C29.5572 15.7796 29.3883 15.4804 29.1655 15.1266C28.6644 14.3308 27.8968 13.2681 26.8359 12.2071C24.7197 10.0909 21.4604 8 16.793 8C12.1255 8 8.86625 10.0909 6.75008 12.2071C5.6891 13.2681 4.9215 14.3308 4.42045 15.1266C4.19767 15.4804 4.02873 15.7796 3.91108 16ZM30.793 16L31.7068 16.4061C31.8217 16.1476 31.8217 15.8524 31.7068 15.5939L30.793 16Z" fill="#377DF7"/>
<path fill-rule="evenodd" clip-rule="evenodd" d="M16.793 12C14.5838 12 12.793 13.7909 12.793 16C12.793 18.2091 14.5838 20 16.793 20C19.0021 20 20.793 18.2091 20.793 16C20.793 13.7909 19.0021 12 16.793 12ZM10.793 16C10.793 12.6863 13.4793 10 16.793 10C20.1067 10 22.793 12.6863 22.793 16C22.793 19.3137 20.1067 22 16.793 22C13.4793 22 10.793 19.3137 10.793 16Z" fill="#377DF7"/>
</svg>
