<svg width="21" height="20" viewBox="0 0 21 20" fill="none" xmlns="http://www.w3.org/2000/svg">
<path fill-rule="evenodd" clip-rule="evenodd" d="M10.5 3.125C8.08375 3.125 6.125 5.08375 6.125 7.5C6.125 9.91625 8.08375 11.875 10.5 11.875C12.9162 11.875 14.875 9.91625 14.875 7.5C14.875 5.08375 12.9162 3.125 10.5 3.125ZM4.875 7.5C4.875 4.3934 7.3934 1.875 10.5 1.875C13.6066 1.875 16.125 4.3934 16.125 7.5C16.125 10.6066 13.6066 13.125 10.5 13.125C7.3934 13.125 4.875 10.6066 4.875 7.5Z" fill="#BDBDBD"/>
<path fill-rule="evenodd" clip-rule="evenodd" d="M10.5001 13.125C9.07374 13.125 7.67251 13.5005 6.43728 14.2137C5.20205 14.927 4.17634 15.9528 3.46327 17.1881C3.29071 17.4871 2.90848 17.5896 2.60953 17.417C2.31058 17.2444 2.20812 16.8622 2.38068 16.5632C3.20346 15.1379 4.38696 13.9542 5.81223 13.1312C7.2375 12.3083 8.8543 11.875 10.5001 11.875C12.1459 11.875 13.7627 12.3083 15.188 13.1312C16.6132 13.9542 17.7968 15.1379 18.6195 16.5632C18.7921 16.8622 18.6896 17.2444 18.3907 17.417C18.0917 17.5896 17.7095 17.4871 17.5369 17.1881C16.8239 15.9528 15.7982 14.927 14.5629 14.2137C13.3277 13.5005 11.9265 13.125 10.5001 13.125Z" fill="#BDBDBD"/>
</svg>
